<svg width="50" height="50" viewBox="0 0 50 50" fill="none" xmlns="http://www.w3.org/2000/svg">
<path d="M9.73333 10.8333L9.03917 6.66663H6.5475C6.17583 5.23329 4.8825 4.16663 3.33333 4.16663C1.495 4.16663 0 5.66163 0 7.49996C0 9.33829 1.495 10.8333 3.33333 10.8333C4.8825 10.8333 6.17583 9.76663 6.54833 8.33329H7.62667L8.04333 10.8333H8.01167L12.3208 32.5133C10.2667 32.67 8.55583 34.2516 8.35417 36.2416C8.23583 37.4125 8.62083 38.585 9.41083 39.4566C10.2017 40.3308 11.3283 40.8333 12.5 40.8333H14.1667C14.1667 43.5908 16.4092 45.8333 19.1667 45.8333C21.9242 45.8333 24.1667 43.5908 24.1667 40.8333H33.3333C33.3333 43.5908 35.5758 45.8333 38.3333 45.8333C41.0908 45.8333 43.3333 43.5908 43.3333 40.8333H46.6667C47.1275 40.8333 47.5 40.4608 47.5 40C47.5 39.5391 47.1275 39.1666 46.6667 39.1666H43.0417C42.3533 37.2275 40.5058 35.8333 38.3333 35.8333C36.1608 35.8333 34.3133 37.2275 33.625 39.1666H23.875C23.1867 37.2275 21.3392 35.8333 19.1667 35.8333C16.9942 35.8333 15.1467 37.2275 14.4583 39.1666H12.5C11.7983 39.1666 11.1233 38.865 10.6467 38.3391C10.1658 37.8066 9.94 37.1216 10.0125 36.4091C10.1392 35.1516 11.3008 34.1675 12.6567 34.1675H13.3158C13.3275 34.1675 13.3367 34.1675 13.3483 34.1675H45.8433C48.1358 34.1666 50 32.3025 50 30.0108V10.8333H9.73333ZM3.33333 9.16663C2.41417 9.16663 1.66667 8.41913 1.66667 7.49996C1.66667 6.58079 2.41417 5.83329 3.33333 5.83329C4.2525 5.83329 5 6.58079 5 7.49996C5 8.41913 4.2525 9.16663 3.33333 9.16663ZM38.3333 37.5C40.1717 37.5 41.6667 38.995 41.6667 40.8333C41.6667 42.6716 40.1717 44.1666 38.3333 44.1666C36.495 44.1666 35 42.6716 35 40.8333C35 38.995 36.495 37.5 38.3333 37.5ZM19.1667 37.5C21.005 37.5 22.5 38.995 22.5 40.8333C22.5 42.6716 21.005 44.1666 19.1667 44.1666C17.3283 44.1666 15.8333 42.6716 15.8333 40.8333C15.8333 38.995 17.3283 37.5 19.1667 37.5ZM48.3333 30.0108C48.3333 31.3833 47.2167 32.5 45.8442 32.5H14.0175L10.0425 12.5H48.3333V30.0108Z" fill="white"/>
</svg>
