<svg width="40" height="40" viewBox="0 0 40 40" fill="none" xmlns="http://www.w3.org/2000/svg">
<g clip-path="url(#clip0_1_108)">
<path d="M36.5122 5.26227C34.2594 3.0096 31.2643 1.76892 28.0785 1.76892C25.0572 1.76892 22.2076 2.88464 19.9999 4.92131C15.3272 0.615115 8.02139 0.72877 3.48769 5.26237C-1.16264 9.91271 -1.16264 17.4793 3.48769 22.1296L19.2987 37.9406C19.4848 38.1265 19.737 38.231 20 38.231C20.263 38.231 20.5152 38.1265 20.7013 37.9406L36.5122 22.1296C41.1625 17.4793 41.1625 9.91271 36.5122 5.26227ZM35.1096 20.7271L20 35.8367L4.89033 20.727C3.01214 18.8489 1.97794 16.352 1.97794 13.6959C1.97804 11.0399 3.01234 8.5429 4.89042 6.66481C6.82891 4.72633 9.37523 3.75709 11.9216 3.75709C14.3114 3.75709 16.7012 4.61099 18.5886 6.31869L15.7163 9.19101C15.329 9.57829 15.329 10.2063 15.7163 10.5935C15.91 10.7872 16.1638 10.884 16.4176 10.884C16.6714 10.884 16.9252 10.7872 17.1188 10.5935L21.0476 6.66471C22.9257 4.78663 25.4226 3.75233 28.0786 3.75233C30.7346 3.75233 33.2317 4.78663 35.1097 6.66471C38.9866 10.5419 38.9866 16.8501 35.1096 20.7271Z" fill="white"/>
<path d="M31.0018 5.36823C30.0398 5.01507 29.0281 4.83606 27.9948 4.83606C27.4472 4.83606 27.0031 5.28007 27.0031 5.82781C27.0031 6.37556 27.4472 6.81957 27.9948 6.81957C28.7942 6.81957 29.5759 6.95772 30.3185 7.23025C30.4312 7.27161 30.5466 7.29124 30.66 7.29124C31.0641 7.29124 31.4438 7.04231 31.5912 6.64095C31.7799 6.12673 31.516 5.55697 31.0018 5.36823Z" fill="white"/>
<path d="M34.6564 7.92493C34.3025 7.507 33.6765 7.45523 33.2587 7.80929C32.8407 8.16335 32.789 8.78914 33.143 9.20707C34.1721 10.4217 34.7388 11.9688 34.7388 13.5635C34.7388 14.1113 35.1829 14.5553 35.7305 14.5553C36.2782 14.5553 36.7223 14.1113 36.7223 13.5635C36.7223 11.4999 35.9886 9.49745 34.6564 7.92493Z" fill="white"/>
<path d="M18.3771 29.6379C17.9897 29.2506 17.362 29.2506 16.9745 29.6379C16.5872 30.0252 16.5872 30.6531 16.9745 31.0405L18.3627 32.4288C18.5564 32.6225 18.8102 32.7193 19.064 32.7193C19.3178 32.7193 19.5716 32.6225 19.7653 32.4288C20.1526 32.0415 20.1526 31.4135 19.7653 31.0261L18.3771 29.6379Z" fill="white"/>
<path d="M10.8644 22.1252C10.477 21.7379 9.8492 21.7379 9.46172 22.1252C9.07444 22.5125 9.07444 23.1404 9.46172 23.5278L14.6933 28.7594C14.887 28.9531 15.1408 29.0499 15.3946 29.0499C15.6484 29.0499 15.9022 28.9531 16.0959 28.7594C16.4831 28.3721 16.4831 27.7442 16.0959 27.3568L10.8644 22.1252Z" fill="white"/>
</g>
<defs>
<clipPath id="clip0_1_108">
<rect width="40" height="40" fill="white"/>
</clipPath>
</defs>
</svg>
