<svg width="50" height="50" viewBox="0 0 50 50" fill="none" xmlns="http://www.w3.org/2000/svg">
<path d="M18.1779 23.4372V26.5627C18.1779 26.9826 17.8362 27.3244 17.4161 27.3244H16.4558C16.0358 27.3244 15.694 26.9828 15.694 26.5627V23.4372C15.694 23.0173 16.0356 22.6754 16.4558 22.6754H17.4161C17.8362 22.6756 18.1779 23.0173 18.1779 23.4372ZM50 19.9497V30.0502C50 32.2049 48.247 33.9579 46.0923 33.9579H3.90768C1.75302 33.9579 0 32.2049 0 30.0502V19.9497C0 17.795 1.75302 16.042 3.90768 16.042H46.0923C48.247 16.042 50 17.795 50 19.9497ZM12.4609 28.6956C12.4609 27.9383 11.847 27.3244 11.0898 27.3244H7.7574V21.3045C7.7574 20.5473 7.14351 19.9334 6.38629 19.9334C5.62907 19.9334 5.01517 20.5473 5.01517 21.3045V28.6956C5.01517 29.4528 5.62907 30.0667 6.38629 30.0667H11.0898C11.847 30.0667 12.4609 29.4528 12.4609 28.6956ZM20.9201 23.4372C20.9201 21.5052 19.3483 19.9332 17.4161 19.9332H16.4558C14.5238 19.9332 12.9517 21.5051 12.9517 23.4372V26.5627C12.9517 28.4946 14.5236 30.0667 16.4558 30.0667H17.4161C19.3483 30.0667 20.9201 28.4948 20.9201 26.5627V23.4372ZM30.2463 26.5627C30.2463 25.8054 29.6324 25.1915 28.8751 25.1915H27.628C26.8708 25.1915 26.2569 25.8054 26.2569 26.5627C26.2569 26.8446 26.3419 27.1065 26.4878 27.3244H25.7821C25.3622 27.3244 25.0203 26.9828 25.0203 26.5627V23.4372C25.0203 23.0173 25.362 22.6754 25.7821 22.6754H26.7424C26.9806 22.6754 27.1477 22.7787 27.2459 22.8656C27.8137 23.3669 28.6801 23.3127 29.1812 22.7451C29.6823 22.1775 29.6283 21.3109 29.0607 20.8098C28.4205 20.2446 27.5971 19.9334 26.7424 19.9334H25.7821C23.8501 19.9334 22.2781 21.5052 22.2781 23.4374V26.5628C22.2781 28.4948 23.8499 30.0669 25.7821 30.0669H26.7424C28.6744 30.0667 30.2463 28.4948 30.2463 26.5627ZM34.3108 21.3045C34.3108 20.5473 33.6969 19.9334 32.9397 19.9334C32.1824 19.9334 31.5686 20.5473 31.5686 21.3045V28.6956C31.5686 29.4528 32.1824 30.0667 32.9397 30.0667C33.6969 30.0667 34.3108 29.4528 34.3108 28.6956V21.3045ZM44.5027 21.3045C44.5027 20.5473 43.8888 19.9334 43.1316 19.9334C42.3744 19.9334 41.7605 20.5473 41.7605 21.3045V24.7049L38.4545 20.4619C38.0947 19.9999 37.4814 19.8175 36.9274 20.008C36.3737 20.1983 36.0018 20.7191 36.0018 21.3047V28.6957C36.0018 29.453 36.6157 30.0669 37.3729 30.0669C38.1302 30.0669 38.7441 29.453 38.7441 28.6957V25.2954L42.0501 29.5383C42.315 29.8784 42.7172 30.0669 43.1318 30.0669C43.2804 30.0669 43.4309 30.0425 43.5771 29.9925C44.1309 29.8021 44.5027 29.2811 44.5027 28.6957V21.3045Z" fill="white"/>
</svg>
